<svg width="14" height="14" viewBox="0 0 14 14" fill="none" xmlns="http://www.w3.org/2000/svg">
<path d="M6.53333 0V1.86667H7.46667V0H6.53333Z" fill="url(#paint0_linear_756_4131)"/>
<path d="M3.12998 3.40335L1.72998 2.00335L1.07002 2.66332L2.47002 4.06332L3.12998 3.40335Z" fill="url(#paint1_linear_756_4131)"/>
<path d="M11.53 4.06332L12.93 2.66332L12.27 2.00335L10.87 3.40335L11.53 4.06332Z" fill="url(#paint2_linear_756_4131)"/>
<path d="M6.99999 2.8C5.16112 2.8 3.60208 4.15214 3.34203 5.97253L3.33265 6.03819C3.18405 7.07838 3.48172 8.06907 4.06941 8.82836C4.42722 9.29064 4.66667 9.73188 4.66667 10.1746V11.6667C4.66667 11.9244 4.8756 12.1333 5.13333 12.1333H8.86667C9.1244 12.1333 9.33333 11.9244 9.33333 11.6667V10.1745C9.33333 9.73186 9.57277 9.29062 9.93057 8.82834C10.5183 8.06905 10.8159 7.07838 10.6673 6.0382L10.6579 5.97253C10.3979 4.15215 8.83885 2.8 6.99999 2.8Z" fill="url(#paint3_linear_756_4131)"/>
<path d="M0 7.46667H1.86667V6.53333H0V7.46667Z" fill="url(#paint4_linear_756_4131)"/>
<path d="M12.1333 7.46667H14V6.53333H12.1333V7.46667Z" fill="url(#paint5_linear_756_4131)"/>
<path d="M5.6 14H8.4V13.0667H5.6V14Z" fill="url(#paint6_linear_756_4131)"/>
<defs>
<linearGradient id="paint0_linear_756_4131" x1="14" y1="7" x2="0" y2="7" gradientUnits="userSpaceOnUse">
<stop stop-color="#C46567"/>
<stop offset="1" stop-color="#B75456"/>
</linearGradient>
<linearGradient id="paint1_linear_756_4131" x1="14" y1="7" x2="0" y2="7" gradientUnits="userSpaceOnUse">
<stop stop-color="#C46567"/>
<stop offset="1" stop-color="#B75456"/>
</linearGradient>
<linearGradient id="paint2_linear_756_4131" x1="14" y1="7" x2="0" y2="7" gradientUnits="userSpaceOnUse">
<stop stop-color="#C46567"/>
<stop offset="1" stop-color="#B75456"/>
</linearGradient>
<linearGradient id="paint3_linear_756_4131" x1="14" y1="7" x2="0" y2="7" gradientUnits="userSpaceOnUse">
<stop stop-color="#C46567"/>
<stop offset="1" stop-color="#B75456"/>
</linearGradient>
<linearGradient id="paint4_linear_756_4131" x1="14" y1="7" x2="0" y2="7" gradientUnits="userSpaceOnUse">
<stop stop-color="#C46567"/>
<stop offset="1" stop-color="#B75456"/>
</linearGradient>
<linearGradient id="paint5_linear_756_4131" x1="14" y1="7" x2="0" y2="7" gradientUnits="userSpaceOnUse">
<stop stop-color="#C46567"/>
<stop offset="1" stop-color="#B75456"/>
</linearGradient>
<linearGradient id="paint6_linear_756_4131" x1="14" y1="7" x2="0" y2="7" gradientUnits="userSpaceOnUse">
<stop stop-color="#C46567"/>
<stop offset="1" stop-color="#B75456"/>
</linearGradient>
</defs>
</svg>
