<svg width="20" height="20" viewBox="0 0 20 20" fill="none" xmlns="http://www.w3.org/2000/svg">
<path d="M5.99935 9.99935L11.3327 9.99935M14.666 5.33268L11.3327 9.99324L14.666 14.666M19.3327 3.33094C19.3327 4.80198 18.138 5.99587 16.666 5.99587C15.194 5.99587 13.9993 4.80198 13.9993 3.33094C13.9993 1.8599 15.194 0.666016 16.666 0.666016C18.138 0.666016 19.3327 1.8599 19.3327 3.33094ZM19.3327 16.6556C19.3327 18.1266 18.138 19.3205 16.666 19.3205C15.194 19.3205 13.9993 18.1266 13.9993 16.6556C13.9993 15.1845 15.194 13.9906 16.666 13.9906C18.138 13.9906 19.3327 15.1845 19.3327 16.6556ZM5.99935 9.99326C5.99935 11.4643 4.80468 12.6582 3.33268 12.6582C1.86068 12.6582 0.666016 11.4643 0.666016 9.99326C0.666016 8.52222 1.86068 7.32833 3.33268 7.32833C4.80468 7.32833 5.99935 8.52222 5.99935 9.99326Z" stroke="#343231" stroke-linecap="square"/>
</svg>
