<svg width="230" height="468" viewBox="0 0 230 468" fill="none" xmlns="http://www.w3.org/2000/svg">
<path d="M210 0C210 11.0457 218.954 20 230 20V352C218.954 352 210 360.507 210 371C210 381.493 218.954 390 230 390V448C218.954 448 210 456.954 210 468H20C20 456.954 11.0457 448 0 448V392C11.0457 392 20 383.493 20 373C20 362.507 11.0457 354 0 354V20C11.0457 20 20 11.0457 20 0H210Z" fill="#FEFDFC"/>
<path d="M75.2188 35V26.5156H75.9844V27.8125H76.0625C76.3906 26.9375 77.2188 26.4062 78.3281 26.4062C79.5469 26.4062 80.2969 27.0156 80.6406 28.0156H80.7031C81.0469 27.0312 81.9375 26.4062 83.1875 26.4062C84.8125 26.4062 85.7344 27.4844 85.7344 29.3125V35H84.9375V29.3125C84.9375 27.9219 84.2344 27.125 82.9844 27.125C81.625 27.125 80.875 28.0781 80.875 29.375V35H80.0781V29.2656C80.0781 28 79.4219 27.125 78.1406 27.125C76.8594 27.125 76 28.1094 76 29.4844V35H75.2188ZM93.5781 31.9062V26.5156H94.3594V35H93.5781V33.6094H93.5156C93.125 34.4844 92.2031 35.1094 90.9844 35.1094C89.3281 35.1094 88.1562 33.9844 88.1562 32.0781V26.5156H88.9375V32.0312C88.9375 33.4219 89.8594 34.3438 91.1719 34.3438C92.4375 34.3438 93.5781 33.4375 93.5781 31.9062ZM101.5 28.5156C101.312 27.6406 100.594 27.0938 99.5 27.0938C98.2812 27.0781 97.4375 27.7656 97.4375 28.7031C97.4375 29.4531 97.9531 29.9688 99.0312 30.2344L100.344 30.5625C101.703 30.8906 102.391 31.6562 102.391 32.75C102.391 34.1719 101.234 35.1719 99.3438 35.1719C97.6406 35.1719 96.5625 34.3594 96.3438 32.9062H97.1719C97.3438 33.9219 98.1094 34.4688 99.3438 34.4688C100.703 34.4688 101.594 33.8125 101.594 32.7969C101.594 32.0469 101.094 31.5156 100.062 31.2656L98.75 30.9375C97.375 30.6094 96.6406 29.8281 96.6406 28.7344C96.6406 27.3594 97.8125 26.3906 99.5 26.3906C101.078 26.3906 102.094 27.2656 102.297 28.5156H101.5ZM103.938 32.6562C103.938 31.1562 105.016 30.2969 107 30.1406C107.602 30.0859 109.016 29.9922 109.422 29.9688V29.0625C109.422 27.8594 108.594 27.0938 107.219 27.0938C106.062 27.0938 105.203 27.6406 104.984 28.5156H104.172C104.359 27.2188 105.609 26.3906 107.25 26.3906C108.688 26.3906 110.203 27.1406 110.203 29.125V35H109.422V33.5312H109.359C108.938 34.4219 108.016 35.1875 106.656 35.1875C105.172 35.1875 103.938 34.2812 103.938 32.6562ZM104.719 32.6875C104.719 33.7969 105.594 34.4688 106.75 34.4688C108.328 34.4688 109.422 33.2344 109.422 31.6094V30.6406C108.992 30.6797 107.617 30.7891 107.156 30.8125C105.391 30.9375 104.719 31.6719 104.719 32.6875ZM112.672 35V26.5156H113.469V35H112.672ZM113.078 25.0312C112.734 25.0312 112.453 24.7656 112.453 24.4375C112.453 24.1094 112.734 23.8438 113.078 23.8438C113.406 23.8438 113.688 24.1094 113.688 24.4375C113.688 24.7656 113.406 25.0312 113.078 25.0312ZM122.75 26.5156V27.2031H120.969V32.9219C120.969 33.9531 121.625 34.375 122.359 34.375L122.969 34.3594V35.0938C122.812 35.125 122.625 35.1406 122.297 35.1406C121.219 35.1406 120.188 34.4062 120.188 33.0781V27.2031H118.938V26.5156H120.188V24.4844H120.969V26.5156H122.75ZM124.875 35V26.5156H125.672V35H124.875ZM125.281 25.0312C124.938 25.0312 124.656 24.7656 124.656 24.4375C124.656 24.1094 124.938 23.8438 125.281 23.8438C125.609 23.8438 125.891 24.1094 125.891 24.4375C125.891 24.7656 125.609 25.0312 125.281 25.0312ZM131.359 35.1719C129.141 35.1719 127.656 33.3125 127.656 30.7812C127.656 28.2656 129.172 26.3906 131.344 26.3906C132.984 26.3906 134.281 27.4531 134.516 29.0312H133.719C133.516 27.9375 132.609 27.1094 131.359 27.1094C129.656 27.1094 128.453 28.625 128.453 30.7656C128.453 32.8906 129.625 34.4531 131.359 34.4531C132.562 34.4531 133.516 33.7031 133.734 32.5156H134.531C134.297 34.0781 133.047 35.1719 131.359 35.1719ZM136.469 35V23.6875H137.25V30.6406H137.344L141.484 26.5156H142.5L138.844 30.1562L142.688 35H141.688L138.281 30.6719L137.25 31.6562V35H136.469ZM147.141 35.1719C144.812 35.1719 143.328 33.3438 143.328 30.7969C143.328 28.25 144.859 26.3906 146.984 26.3906C148.875 26.3906 150.547 27.9062 150.547 30.5156V30.9531H144.125C144.156 33 145.297 34.4531 147.141 34.4531C148.469 34.4531 149.203 33.6875 149.5 33.1406H150.344C149.984 34.2031 148.844 35.1719 147.141 35.1719ZM144.141 30.25H149.75C149.75 28.4844 148.562 27.1094 146.984 27.1094C145.406 27.1094 144.234 28.4922 144.141 30.25ZM155.625 26.5156V27.2031H153.844V32.9219C153.844 33.9531 154.5 34.375 155.234 34.375L155.844 34.3594V35.0938C155.688 35.125 155.5 35.1406 155.172 35.1406C154.094 35.1406 153.062 34.4062 153.062 33.0781V27.2031H151.812V26.5156H153.062V24.4844H153.844V26.5156H155.625Z" fill="#343231"/>
<line x1="20" y1="371" x2="210" y2="371" stroke="#B1B1B1" stroke-width="2" stroke-dasharray="6 6"/>
<rect x="149" y="416" width="2" height="24" fill="#706B66"/>
<rect x="198" y="416" width="2" height="24" fill="#706B66"/>
<rect x="152" y="416" width="2" height="24" fill="#706B66"/>
<rect x="201" y="416" width="2" height="24" fill="#706B66"/>
<rect x="156" y="416" width="3" height="24" fill="#706B66"/>
<rect x="204" y="416" width="3" height="24" fill="#706B66"/>
<rect x="160" y="416" width="3" height="24" fill="#706B66"/>
<rect x="208" y="416" width="2" height="24" fill="#706B66"/>
<rect x="166" y="416" width="2" height="24" fill="#706B66"/>
<rect x="170" y="416" width="4" height="24" fill="#706B66"/>
<rect x="176" y="416" width="3" height="24" fill="#706B66"/>
<rect width="3" height="24" transform="matrix(-1 0 0 1 196.5 416)" fill="#706B66"/>
<rect x="184" y="416" width="3" height="24" fill="#706B66"/>
<rect x="181" y="416" width="1.5" height="24" fill="#706B66"/>
<rect width="1.5" height="24" transform="matrix(-1 0 0 1 191.5 416)" fill="#706B66"/>
<rect x="188" y="416" width="1.5" height="24" fill="#706B66"/>
<rect x="135" y="416" width="2" height="24" fill="#706B66"/>
<rect x="138" y="416" width="2" height="24" fill="#706B66"/>
<rect x="142" y="416" width="3" height="24" fill="#706B66"/>
<rect x="146" y="416" width="1" height="24" fill="#706B66"/>
<rect x="116" y="416" width="2" height="24" fill="#706B66"/>
<rect width="3" height="24" transform="matrix(-1 0 0 1 133.5 416)" fill="#706B66"/>
<rect x="122" y="416" width="2" height="24" fill="#706B66"/>
<rect x="119" y="416" width="1" height="24" fill="#706B66"/>
<rect width="1.5" height="24" transform="matrix(-1 0 0 1 128.5 416)" fill="#706B66"/>
<rect x="125" y="416" width="1.5" height="24" fill="#706B66"/>
<rect x="52" y="416" width="3" height="24" fill="#706B66"/>
<rect x="104" y="416" width="2" height="24" fill="#706B66"/>
<rect x="56" y="416" width="2" height="24" fill="#706B66"/>
<rect x="108" y="416" width="2" height="24" fill="#706B66"/>
<rect x="60" y="416" width="3" height="24" fill="#706B66"/>
<rect x="64" y="416" width="3" height="24" fill="#706B66"/>
<rect x="112" y="416" width="2" height="24" fill="#706B66"/>
<rect x="69" y="416" width="3" height="24" fill="#706B66"/>
<rect x="76" y="416" width="3" height="24" fill="#706B66"/>
<rect x="81" y="416" width="3" height="24" fill="#706B66"/>
<rect width="3" height="24" transform="matrix(-1 0 0 1 102.5 416)" fill="#706B66"/>
<rect x="89" y="416" width="3" height="24" fill="#706B66"/>
<rect x="86" y="416" width="1.5" height="24" fill="#706B66"/>
<rect width="1.5" height="24" transform="matrix(-1 0 0 1 98.5 416)" fill="#706B66"/>
<rect x="73" y="416" width="1.5" height="24" fill="#706B66"/>
<rect x="94" y="416" width="1.5" height="24" fill="#706B66"/>
<rect x="39" y="416" width="2" height="24" fill="#706B66"/>
<rect x="42" y="416" width="2" height="24" fill="#706B66"/>
<rect x="46" y="416" width="3" height="24" fill="#706B66"/>
<rect x="50" y="416" width="1.5" height="24" fill="#706B66"/>
<rect x="20" y="416" width="2" height="24" fill="#706B66"/>
<rect width="3" height="24" transform="matrix(-1 0 0 1 37.5 416)" fill="#706B66"/>
<rect x="24" y="416" width="3" height="24" fill="#706B66"/>
<rect width="1.5" height="24" transform="matrix(-1 0 0 1 32.5 416)" fill="#706B66"/>
<rect x="28" y="416" width="1.5" height="24" fill="#706B66"/>
</svg>
