<svg width="230" height="468" viewBox="0 0 230 468" fill="none" xmlns="http://www.w3.org/2000/svg">
<line x1="20" y1="371" x2="210" y2="371" stroke="#B1B1B1" stroke-width="2" stroke-dasharray="6 6"/>
<rect x="149" y="416" width="2" height="24" fill="#706B66"/>
<rect x="198" y="416" width="2" height="24" fill="#706B66"/>
<rect x="152" y="416" width="2" height="24" fill="#706B66"/>
<rect x="201" y="416" width="2" height="24" fill="#706B66"/>
<rect x="156" y="416" width="3" height="24" fill="#706B66"/>
<rect x="204" y="416" width="3" height="24" fill="#706B66"/>
<rect x="160" y="416" width="3" height="24" fill="#706B66"/>
<rect x="208" y="416" width="2" height="24" fill="#706B66"/>
<rect x="166" y="416" width="2" height="24" fill="#706B66"/>
<rect x="170" y="416" width="4" height="24" fill="#706B66"/>
<rect x="176" y="416" width="3" height="24" fill="#706B66"/>
<rect width="3" height="24" transform="matrix(-1 0 0 1 196.5 416)" fill="#706B66"/>
<rect x="184" y="416" width="3" height="24" fill="#706B66"/>
<rect x="181" y="416" width="1.5" height="24" fill="#706B66"/>
<rect width="1.5" height="24" transform="matrix(-1 0 0 1 191.5 416)" fill="#706B66"/>
<rect x="188" y="416" width="1.5" height="24" fill="#706B66"/>
<rect x="135" y="416" width="2" height="24" fill="#706B66"/>
<rect x="138" y="416" width="2" height="24" fill="#706B66"/>
<rect x="142" y="416" width="3" height="24" fill="#706B66"/>
<rect x="146" y="416" width="1" height="24" fill="#706B66"/>
<rect x="116" y="416" width="2" height="24" fill="#706B66"/>
<rect width="3" height="24" transform="matrix(-1 0 0 1 133.5 416)" fill="#706B66"/>
<rect x="122" y="416" width="2" height="24" fill="#706B66"/>
<rect x="119" y="416" width="1" height="24" fill="#706B66"/>
<rect width="1.5" height="24" transform="matrix(-1 0 0 1 128.5 416)" fill="#706B66"/>
<rect x="125" y="416" width="1.5" height="24" fill="#706B66"/>
<rect x="52" y="416" width="3" height="24" fill="#706B66"/>
<rect x="104" y="416" width="2" height="24" fill="#706B66"/>
<rect x="56" y="416" width="2" height="24" fill="#706B66"/>
<rect x="108" y="416" width="2" height="24" fill="#706B66"/>
<rect x="60" y="416" width="3" height="24" fill="#706B66"/>
<rect x="64" y="416" width="3" height="24" fill="#706B66"/>
<rect x="112" y="416" width="2" height="24" fill="#706B66"/>
<rect x="69" y="416" width="3" height="24" fill="#706B66"/>
<rect x="76" y="416" width="3" height="24" fill="#706B66"/>
<rect x="81" y="416" width="3" height="24" fill="#706B66"/>
<rect width="3" height="24" transform="matrix(-1 0 0 1 102.5 416)" fill="#706B66"/>
<rect x="89" y="416" width="3" height="24" fill="#706B66"/>
<rect x="86" y="416" width="1.5" height="24" fill="#706B66"/>
<rect width="1.5" height="24" transform="matrix(-1 0 0 1 98.5 416)" fill="#706B66"/>
<rect x="73" y="416" width="1.5" height="24" fill="#706B66"/>
<rect x="94" y="416" width="1.5" height="24" fill="#706B66"/>
<rect x="39" y="416" width="2" height="24" fill="#706B66"/>
<rect x="42" y="416" width="2" height="24" fill="#706B66"/>
<rect x="46" y="416" width="3" height="24" fill="#706B66"/>
<rect x="50" y="416" width="1.5" height="24" fill="#706B66"/>
<rect x="20" y="416" width="2" height="24" fill="#706B66"/>
<rect width="3" height="24" transform="matrix(-1 0 0 1 37.5 416)" fill="#706B66"/>
<rect x="24" y="416" width="3" height="24" fill="#706B66"/>
<rect width="1.5" height="24" transform="matrix(-1 0 0 1 32.5 416)" fill="#706B66"/>
<rect x="28" y="416" width="1.5" height="24" fill="#706B66"/>
</svg>
