<svg width="52" height="52" viewBox="0 0 52 52" fill="none" xmlns="http://www.w3.org/2000/svg">
<path d="M22.2947 8.36329L3.94301 39C3.56464 39.6552 3.36444 40.3981 3.36232 41.1547C3.3602 41.9114 3.55624 42.6554 3.93094 43.3128C4.30563 43.9701 4.84592 44.5179 5.49805 44.9016C6.15017 45.2854 6.89141 45.4916 7.64801 45.5H44.3513C45.1079 45.4916 45.8492 45.2854 46.5013 44.9016C47.1534 44.5179 47.6937 43.9701 48.0684 43.3128C48.4431 42.6554 48.6392 41.9114 48.637 41.1547C48.6349 40.3981 48.4347 39.6552 48.0563 39L29.7047 8.36329C29.3184 7.72652 28.7746 7.20005 28.1256 6.83467C27.4766 6.46929 26.7444 6.27734 25.9997 6.27734C25.2549 6.27734 24.5227 6.46929 23.8738 6.83467C23.2248 7.20005 22.6809 7.72652 22.2947 8.36329Z" fill="#837670" stroke="#837670" stroke-width="2" stroke-linecap="round" stroke-linejoin="round"/>
<path d="M26 20.293L26 30.4393" stroke="#FEFDFC" stroke-width="3" stroke-linecap="round" stroke-linejoin="round"/>
<path d="M26 36.834H26.0213" stroke="#FEFDFC" stroke-width="3" stroke-linecap="round" stroke-linejoin="round"/>
</svg>
